<svg width="23" height="21" viewBox="0 0 23 21" fill="none" xmlns="http://www.w3.org/2000/svg">
<path d="M12.7203 2.40612L12.7206 2.40588C14.7223 0.152696 17.9032 -0.169085 20.024 1.80223C22.5183 4.12466 22.6557 8.32362 20.412 10.8496L20.4119 10.8497L12.0976 20.2152C12.0975 20.2152 12.0975 20.2153 12.0975 20.2153C11.7593 20.5959 11.237 20.5959 10.8988 20.2153C10.8988 20.2153 10.8987 20.2152 10.8987 20.2152L2.58455 10.8499C0.344816 8.32394 0.482212 4.12486 2.9764 1.80238C5.09737 -0.169283 8.28247 0.152951 10.2797 2.40551L10.2802 2.40612L11.1267 3.35768L11.5003 3.77764L11.8739 3.35768L12.7203 2.40612Z" stroke="#101010"/>
</svg>
